<?xml version="1.0" encoding="UTF-8" standalone="no"?>
<!-- Generator: Adobe Illustrator 19.0.0, SVG Export Plug-In . SVG Version: 6.00 Build 0)  -->

<svg
   xmlns:dc="http://purl.org/dc/elements/1.1/"
   xmlns:cc="http://creativecommons.org/ns#"
   xmlns:rdf="http://www.w3.org/1999/02/22-rdf-syntax-ns#"
   xmlns:svg="http://www.w3.org/2000/svg"
   xmlns="http://www.w3.org/2000/svg"
   xmlns:sodipodi="http://sodipodi.sourceforge.net/DTD/sodipodi-0.dtd"
   xmlns:inkscape="http://www.inkscape.org/namespaces/inkscape"
   version="1.1"
   id="Capa_1"
   x="0px"
   y="0px"
   viewBox="0 0 511 399"
   xml:space="preserve"
   sodipodi:docname="credit-card-chip.svg"
   width="511"
   height="399"
   inkscape:version="0.92.3 (2405546, 2018-03-11)"><metadata
   id="metadata39"><rdf:RDF><cc:Work
       rdf:about=""><dc:format>image/svg+xml</dc:format><dc:type
         rdf:resource="http://purl.org/dc/dcmitype/StillImage" /></cc:Work></rdf:RDF></metadata><defs
   id="defs37" /><sodipodi:namedview
   pagecolor="#ffffff"
   bordercolor="#666666"
   borderopacity="1"
   objecttolerance="10"
   gridtolerance="10"
   guidetolerance="10"
   inkscape:pageopacity="0"
   inkscape:pageshadow="2"
   inkscape:window-width="1920"
   inkscape:window-height="996"
   id="namedview35"
   showgrid="false"
   inkscape:zoom="1.3062795"
   inkscape:cx="272.44148"
   inkscape:cy="181.48277"
   inkscape:window-x="0"
   inkscape:window-y="28"
   inkscape:window-maximized="1"
   inkscape:current-layer="Capa_1" />
<path
   d="M 455.5,0 H 55.5 C 24.897,0 0,24.897 0,55.5 v 288 C 0,374.103 24.897,399 55.5,399 h 400 c 30.603,0 55.5,-24.897 55.5,-55.5 V 55.5 C 511,24.897 486.103,0 455.5,0 Z M 464,192 H 343 v -56.5 c 0,-4.687 3.813,-8.5 8.5,-8.5 H 464 Z m -121,15 h 121 v 65 H 343 Z m 136,-40 h 17 v 65 h -17 z m 0,-15 V 87 h 17 v 65 z M 464,112 H 351.5 C 338.542,112 328,122.542 328,135.5 V 352 H 183 V 47 h 272.5 c 4.687,0 8.5,3.813 8.5,8.5 z M 168,192 H 47 V 127 H 168 Z M 32,232 H 15 v -65 h 17 z m 15,-25 h 121 v 65 H 47 Z M 263,32 V 15 h 137 v 17 z m -15,0 H 111 V 15 h 137 z m -80,15 v 65 H 47 V 55.5 C 47,50.813 50.813,47 55.5,47 Z M 32,152 H 15 V 87 h 17 z m -17,95 h 17 v 65 H 15 Z m 32,40 h 121 v 65 H 55.5 c -4.687,0 -8.5,-3.813 -8.5,-8.5 z m 201,80 v 17 H 111 v -17 z m 15,0 h 137 v 17 H 263 Z m 80,-15 v -65 h 121 v 56.5 c 0,4.687 -3.813,8.5 -8.5,8.5 z M 479,247 h 17 v 65 H 479 Z M 496,55.5 V 72 H 479 V 55.5 C 479,42.542 468.458,32 455.5,32 H 415 V 15 h 40.5 C 477.832,15 496,33.168 496,55.5 Z M 55.5,15 H 96 V 32 H 55.5 C 42.542,32 32,42.542 32,55.5 V 72 H 15 V 55.5 C 15,33.168 33.168,15 55.5,15 Z M 15,343.5 V 327 h 17 v 16.5 C 32,356.458 42.542,367 55.5,367 H 96 v 17 H 55.5 C 33.168,384 15,365.832 15,343.5 Z M 455.5,384 H 415 v -17 h 40.5 c 12.958,0 23.5,-10.542 23.5,-23.5 V 327 h 17 v 16.5 c 0,22.332 -18.168,40.5 -40.5,40.5 z"
   id="path2"
   inkscape:connector-curvature="0" />
<g
   id="g4"
   transform="translate(0,-56)">
</g>
<g
   id="g6"
   transform="translate(0,-56)">
</g>
<g
   id="g8"
   transform="translate(0,-56)">
</g>
<g
   id="g10"
   transform="translate(0,-56)">
</g>
<g
   id="g12"
   transform="translate(0,-56)">
</g>
<g
   id="g14"
   transform="translate(0,-56)">
</g>
<g
   id="g16"
   transform="translate(0,-56)">
</g>
<g
   id="g18"
   transform="translate(0,-56)">
</g>
<g
   id="g20"
   transform="translate(0,-56)">
</g>
<g
   id="g22"
   transform="translate(0,-56)">
</g>
<g
   id="g24"
   transform="translate(0,-56)">
</g>
<g
   id="g26"
   transform="translate(0,-56)">
</g>
<g
   id="g28"
   transform="translate(0,-56)">
</g>
<g
   id="g30"
   transform="translate(0,-56)">
</g>
<g
   id="g32"
   transform="translate(0,-56)">
</g>
</svg>